<?xml version="1.0" standalone="no"?>
<!DOCTYPE svg PUBLIC "-//W3C//DTD SVG 20010904//EN"
 "http://www.w3.org/TR/2001/REC-SVG-20010904/DTD/svg10.dtd">
<svg version="1.0" xmlns="http://www.w3.org/2000/svg"
 width="542.000000pt" height="542.000000pt" viewBox="0 0 542.000000 542.000000"
 preserveAspectRatio="xMidYMid meet">
<metadata>
Created by potrace 1.14, written by Peter Selinger 2001-2017
</metadata>
<g transform="translate(0.000000,542.000000) scale(0.100000,-0.100000)"
fill="#000000" stroke="none">
<path d="M17 5403 c-4 -3 -7 -29 -6 -57 0 -44 2 -48 12 -31 15 25 57 67 82 82
17 10 13 12 -31 12 -28 1 -54 -2 -57 -6z"/>
<path d="M240 5400 c0 -5 6 -10 13 -10 7 0 25 -12 39 -27 116 -121 7 -309
-158 -273 -28 6 -51 22 -81 55 l-43 47 1 -119 c0 -96 2 -114 12 -98 25 41 79
84 113 91 105 19 192 -42 201 -143 16 -158 -174 -241 -281 -123 l-36 40 0
-106 0 -107 23 33 c47 69 151 92 218 47 58 -39 81 -83 77 -148 -5 -66 -32
-109 -84 -134 -76 -36 -168 -13 -209 53 -11 17 -23 31 -27 32 -4 0 -7 -49 -6
-110 0 -60 4 -110 7 -110 3 0 14 14 23 30 55 97 225 91 280 -10 26 -47 21
-134 -10 -177 -62 -87 -219 -83 -270 7 -9 16 -19 30 -22 30 -3 0 -5 -49 -5
-110 0 -105 6 -133 20 -90 20 62 140 99 213 65 81 -37 116 -137 77 -220 -52
-109 -216 -119 -280 -17 -21 33 -42 44 -31 16 3 -9 6 -59 6 -111 l0 -96 23 33
c46 68 144 90 216 49 55 -31 75 -65 79 -134 3 -50 0 -66 -20 -94 -66 -98 -210
-99 -275 -1 l-23 33 0 -119 c0 -117 1 -118 17 -86 49 100 210 111 275 19 16
-22 23 -50 26 -92 3 -50 0 -66 -20 -94 -67 -99 -209 -100 -275 -1 l-23 33 0
-114 0 -114 20 29 c90 138 305 74 302 -90 -2 -161 -219 -218 -302 -81 l-20 32
0 -120 0 -120 19 31 c57 94 170 111 251 38 35 -32 55 -74 53 -114 -1 -59 -6
-74 -39 -110 -78 -86 -205 -75 -265 24 l-19 31 0 -119 0 -119 22 33 c32 46 68
71 115 77 155 21 250 -162 142 -273 -69 -71 -163 -71 -235 2 l-44 43 0 -111 0
-111 22 33 c34 49 67 70 123 76 71 8 132 -25 163 -86 28 -56 28 -96 -1 -150
-26 -50 -90 -90 -141 -90 -46 0 -117 40 -143 79 l-23 34 1 -119 c0 -97 2 -115
12 -99 56 92 157 119 245 65 37 -23 72 -88 72 -135 0 -47 -35 -112 -72 -135
-79 -48 -154 -38 -217 28 l-44 46 6 -440 c4 -241 7 -566 7 -722 l0 -282 2695
0 2695 0 0 711 0 710 -36 -27 c-51 -40 -135 -45 -183 -12 -79 54 -102 137 -59
217 29 54 76 81 141 81 51 0 78 -10 115 -43 l22 -20 0 73 0 73 -22 -21 c-52
-47 -143 -57 -198 -19 -52 35 -73 70 -77 129 -7 98 59 168 160 168 51 0 78
-10 115 -43 l22 -20 0 73 0 73 -22 -20 c-37 -33 -64 -43 -116 -43 -123 0 -202
133 -141 239 28 50 64 73 120 79 61 6 90 -2 128 -34 l31 -26 0 72 0 71 -36
-27 c-50 -39 -127 -45 -182 -14 -57 32 -86 87 -80 154 8 92 68 146 163 146 50
0 77 -10 113 -43 l22 -20 0 79 c-1 59 -3 74 -11 61 -34 -58 -163 -74 -229 -27
-87 62 -79 212 14 269 61 38 174 20 211 -33 14 -19 15 -13 15 64 0 77 -1 83
-15 64 -35 -51 -139 -70 -205 -36 -53 26 -80 74 -80 142 0 68 27 116 80 142
66 34 170 15 205 -36 14 -19 15 -13 15 64 0 77 -1 83 -15 64 -34 -49 -144 -70
-203 -40 -91 47 -115 168 -50 251 27 34 75 55 128 55 47 0 73 -11 113 -48 l27
-26 0 84 0 84 -34 -33 c-28 -27 -45 -35 -85 -39 -65 -6 -93 2 -135 38 -83 73
-60 224 40 266 71 30 151 12 193 -42 l21 -27 0 92 0 91 -34 -37 c-31 -34 -38
-37 -100 -41 -59 -4 -71 -1 -105 21 -48 32 -76 97 -68 159 17 128 177 184 272
94 l35 -33 0 88 0 89 -33 -36 c-74 -81 -222 -57 -263 42 -60 144 81 282 221
214 25 -12 52 -34 60 -48 13 -25 14 -20 15 69 l0 97 -38 -38 c-63 -64 -165
-65 -227 -2 -35 34 -45 62 -45 118 0 151 187 218 285 102 l25 -30 0 97 0 97
-27 -33 c-53 -62 -137 -76 -208 -34 -50 29 -75 75 -75 140 0 56 19 95 62 129
l33 26 -110 0 -110 0 33 -20 c48 -30 72 -75 72 -140 0 -65 -21 -103 -77 -137
-45 -27 -110 -30 -159 -7 -104 49 -112 214 -15 280 l36 24 -109 0 -110 0 42
-36 c90 -77 74 -217 -31 -264 -108 -50 -217 8 -233 123 -8 57 22 126 69 156
l32 21 -110 0 -110 0 37 -25 c69 -47 87 -157 36 -228 -25 -35 -90 -67 -138
-67 -78 0 -160 84 -160 164 0 44 37 112 73 135 l32 21 -110 0 -110 0 32 -21
c71 -46 93 -159 43 -229 -70 -98 -223 -87 -278 20 -38 74 -15 165 54 211 l29
19 -110 0 -110 0 32 -21 c37 -24 73 -91 73 -137 0 -50 -24 -96 -66 -128 -32
-25 -46 -29 -100 -29 -76 0 -108 20 -143 88 -34 69 -24 127 34 184 l42 43
-101 0 -101 -1 28 -20 c114 -86 72 -274 -67 -294 -61 -10 -101 1 -140 39 -70
65 -70 164 -1 234 l42 42 -105 0 -105 0 33 -22 c43 -30 70 -82 70 -136 0 -140
-172 -215 -274 -119 -70 67 -71 164 -1 235 l42 42 -106 0 -106 0 36 -24 c124
-85 72 -279 -78 -293 -159 -16 -241 179 -120 282 l41 35 -115 0 c-112 0 -113
-1 -81 -17 45 -22 82 -88 82 -145 0 -79 -62 -146 -143 -155 -88 -10 -155 34
-178 119 -16 61 3 120 54 163 l41 35 -110 0 -109 0 33 -21 c69 -45 94 -154 49
-220 -49 -73 -131 -98 -211 -65 -105 44 -123 194 -33 271 l41 35 -109 0 -110
0 38 -31 c48 -40 67 -77 67 -132 0 -86 -75 -157 -165 -157 -67 0 -112 29 -144
93 -35 70 -24 128 35 185 l44 42 -107 0 c-97 -1 -106 -2 -89 -15 11 -8 23 -15
27 -15 5 0 20 -20 34 -43 66 -113 -9 -247 -139 -247 -154 0 -221 185 -103 285
l41 35 -109 0 -110 0 39 -32 c69 -57 85 -139 41 -213 -33 -57 -79 -79 -158
-73 -55 4 -63 8 -98 45 -68 73 -60 178 19 243 l37 30 -110 0 -110 0 38 -31
c47 -39 67 -77 67 -129 0 -145 -164 -216 -275 -119 -58 51 -68 136 -24 208 10
17 30 37 44 43 46 21 26 28 -80 28 -63 0 -105 -4 -105 -10z m1391 -355 c71
-46 91 -147 43 -222 -88 -134 -296 -73 -296 86 0 136 138 209 253 136z m337 3
c48 -29 75 -89 70 -153 -8 -93 -78 -151 -172 -143 -92 8 -148 67 -148 158 0
132 135 207 250 138z m1342 10 c57 -30 82 -65 87 -125 10 -95 -49 -169 -143
-179 -156 -18 -238 175 -121 284 48 45 113 52 177 20z m1344 8 c130 -54 139
-239 13 -296 -53 -25 -91 -25 -144 0 -126 57 -118 249 12 295 51 18 78 18 119
1z m329 0 c73 -26 109 -79 109 -158 -1 -96 -82 -166 -179 -155 -112 12 -176
133 -125 233 25 48 40 62 89 80 47 16 59 16 106 0z m-4383 -18 c51 -35 73 -71
78 -130 3 -44 0 -59 -20 -88 -72 -106 -206 -109 -282 -7 -30 40 -28 132 4 177
51 72 152 94 220 48z m338 3 c78 -40 105 -146 57 -226 -29 -51 -75 -75 -142
-75 -135 0 -207 157 -121 265 43 55 137 71 206 36z m342 0 c75 -39 104 -153
57 -222 -12 -18 -38 -44 -57 -57 -29 -20 -44 -23 -93 -20 -93 7 -151 67 -151
158 0 124 132 201 244 141z m892 -6 c-24 -14 -48 -23 -52 -20 -4 3 -6 -4 -3
-15 4 -14 0 -20 -11 -20 -16 0 -19 -11 -19 -85 0 -87 4 -89 130 -85 33 1 70
-3 80 -8 13 -7 24 -7 34 0 12 8 11 9 -2 5 -29 -9 -39 15 -39 95 0 56 -4 78
-12 78 -10 0 -10 2 0 9 7 4 12 14 10 21 -4 20 29 24 47 6 26 -25 32 -56 21
-108 -8 -38 -7 -51 3 -57 11 -7 10 -13 -4 -34 -35 -54 -114 -83 -180 -66 -96
26 -141 127 -101 223 16 40 79 86 116 86 22 0 20 -3 -18 -25z m102 16 c3 -4
-6 -6 -19 -3 -14 2 -25 6 -25 8 0 8 39 4 44 -5z m1286 -2 c0 -6 -9 -9 -20 -6
-13 3 -31 -6 -54 -26 -32 -30 -35 -37 -39 -104 l-4 -72 37 -36 c32 -32 43 -36
95 -38 59 -3 92 12 79 36 -5 9 -4 9 6 0 19 -17 30 -3 68 87 8 18 11 20 11 7 1
-22 -24 -84 -42 -101 -48 -48 -143 -62 -200 -29 -102 60 -105 212 -5 273 36
22 68 26 68 9z m113 -18 c16 -16 16 -17 0 -16 -10 0 -29 11 -43 24 l-25 23 25
-7 c14 -4 33 -15 43 -24z m237 19 c-8 -6 -31 -15 -50 -20 -47 -13 -61 -23 -65
-46 -2 -10 -4 -19 -6 -19 -4 0 -10 -51 -10 -79 0 -16 5 -33 12 -36 6 -4 10
-11 8 -16 -1 -5 8 -14 20 -20 11 -6 30 -19 41 -29 24 -21 110 -27 110 -8 0 7
9 13 19 13 11 0 23 5 26 10 3 6 11 10 17 10 6 0 5 -6 -3 -16 -38 -46 -139 -59
-197 -24 -88 54 -99 186 -20 256 28 26 44 32 83 33 23 1 27 -2 15 -9z m85 -7
c19 -9 35 -21 35 -26 0 -5 -7 -4 -15 3 -8 7 -32 18 -52 26 -21 7 -30 13 -21
14 10 0 33 -8 53 -17z m-279 -60 c-3 -3 1 -15 9 -27 24 -33 17 -40 -9 -9 -22
26 -25 60 -4 47 5 -3 7 -8 4 -11z m354 -122 c-15 -57 -24 -47 -10 13 7 32 7
53 0 66 -5 10 -10 27 -9 37 0 10 8 -2 16 -27 12 -37 13 -53 3 -89z m-1693 17
c-2 -13 -4 -3 -4 22 0 25 2 35 4 23 2 -13 2 -33 0 -45z m1736 -18 c3 -11 1
-18 -4 -14 -5 3 -9 12 -9 20 0 20 7 17 13 -6z m-97 -165 c43 -33 64 -78 64
-138 0 -59 -32 -106 -93 -136 -61 -30 -122 -23 -171 20 -45 39 -59 78 -54 144
5 61 36 105 93 131 46 22 117 12 161 -21z m218 15 c-8 -8 -38 -17 -67 -19 -5
-1 -6 -5 -2 -10 3 -5 1 -12 -5 -16 -5 -3 -10 -15 -10 -25 0 -10 -7 -23 -16
-28 -13 -7 -15 -19 -9 -65 4 -32 11 -58 16 -58 5 -1 13 -2 18 -3 5 0 13 -5 18
-10 5 -5 3 -6 -4 -2 -17 10 -16 -2 1 -19 7 -8 24 -12 37 -9 18 4 20 3 10 -4
-10 -7 -1 -11 31 -13 37 -3 44 -1 40 11 -4 12 -2 13 9 3 16 -15 33 -17 24 -3
-3 6 4 10 18 10 19 0 26 7 30 29 3 16 13 36 22 44 8 9 15 22 15 29 0 23 -26
88 -33 82 -3 -3 -5 3 -4 14 2 32 23 9 37 -43 20 -72 -15 -155 -76 -181 -43
-18 -118 -18 -152 0 -55 29 -76 62 -80 129 -3 52 0 67 20 97 13 19 43 45 67
57 43 22 65 23 45 3z m776 -2 c50 -26 90 -89 90 -143 0 -92 -90 -172 -184
-161 -160 18 -198 241 -52 307 54 25 92 24 146 -3z m-4410 -9 c48 -27 80 -83
80 -141 0 -122 -150 -203 -251 -135 -37 24 -79 97 -79 137 0 40 42 113 79 137
45 30 119 31 171 2z m336 5 c76 -36 108 -155 61 -225 -36 -53 -82 -79 -142
-79 -160 0 -220 207 -85 297 40 28 116 31 166 7z m355 -8 c131 -89 64 -296
-96 -296 -160 0 -220 207 -85 297 47 33 132 32 181 -1z m340 1 c69 -45 91
-151 46 -218 -39 -58 -83 -81 -148 -77 -95 7 -151 65 -151 159 0 58 25 105 72
136 46 32 134 32 181 0z m997 5 c10 -10 24 -16 32 -14 7 3 10 0 6 -7 -4 -6 -1
-11 7 -11 34 0 59 -108 37 -165 -9 -24 -12 -26 -28 -14 -16 13 -16 12 -2 -5
13 -17 12 -21 -15 -42 -17 -13 -36 -22 -43 -19 -7 3 -11 1 -7 -4 3 -5 -13 -12
-35 -16 -52 -9 -125 26 -157 74 -47 70 -21 177 52 218 51 29 127 31 153 5z
m319 12 c-3 -4 -23 -8 -44 -9 -70 -5 -108 -19 -98 -36 4 -5 -4 -19 -17 -32
-30 -31 -33 -68 -9 -108 13 -22 17 -36 10 -40 -7 -4 -4 -9 6 -12 9 -4 14 -3
11 2 -3 4 15 9 39 9 35 2 45 -1 45 -13 0 -9 -11 -20 -25 -25 -35 -13 -31 -16
20 -12 25 2 45 8 45 13 0 5 -7 9 -15 9 -8 0 -15 4 -15 9 0 11 25 21 48 20 11
0 12 -2 5 -6 -7 -2 -13 -15 -13 -28 0 -21 2 -22 25 -12 14 7 25 21 25 32 0 17
2 17 10 5 8 -13 10 -13 10 0 0 11 3 11 12 2 10 -10 8 -17 -8 -33 -12 -11 -27
-21 -35 -22 -8 -2 -20 -7 -28 -11 -25 -16 -97 -10 -132 10 -19 11 -44 36 -57
55 -20 28 -23 44 -20 92 7 95 60 145 157 146 30 1 52 -2 48 -5z m1353 -9 c-14
-16 -25 -21 -15 -6 3 5 -3 12 -12 14 -11 3 -6 5 11 6 24 1 27 -1 16 -14z
m-1277 -40 c0 -5 -8 -12 -18 -14 -13 -2 -16 1 -12 12 5 15 -18 32 -36 28 -5
-1 -6 3 -2 9 8 12 68 -19 68 -35z m34 -117 c-10 -81 -30 -89 -42 -18 -4 22
-11 40 -16 40 -5 0 -9 9 -9 20 0 13 7 20 20 20 14 0 20 7 20 23 1 20 2 20 17
-7 11 -21 14 -44 10 -78z m-250 20 c-3 -8 -6 -5 -6 6 -1 11 2 17 5 13 3 -3 4
-12 1 -19z m-1080 -40 c-3 -8 -6 -5 -6 6 -1 11 2 17 5 13 3 -3 4 -12 1 -19z
m1372 -23 c0 -5 -4 -3 -9 5 -5 8 -9 22 -9 30 0 16 17 -16 18 -35z m-797 -141
c110 -56 108 -228 -3 -285 -109 -55 -239 21 -239 140 0 129 125 203 242 145z
m2046 -1 c78 -58 96 -157 43 -230 -94 -130 -291 -68 -291 92 0 69 39 128 100
154 37 16 117 7 148 -16z m339 1 c45 -34 66 -70 71 -123 9 -97 -61 -171 -163
-171 -78 0 -135 43 -154 115 -19 75 12 150 77 185 47 26 130 23 169 -6z m268
16 c3 -5 1 -10 -4 -10 -6 0 -11 5 -11 10 0 6 2 10 4 10 3 0 8 -4 11 -10z
m-4359 -16 c110 -52 110 -236 0 -288 -114 -54 -240 22 -240 144 0 122 126 198
240 144z m355 -8 c95 -65 91 -217 -7 -273 -112 -65 -247 11 -246 137 1 98 64
160 161 160 43 0 65 -6 92 -24z m325 8 c99 -47 113 -210 24 -274 -74 -53 -179
-38 -230 32 -25 33 -30 51 -30 95 0 66 19 105 67 138 45 30 117 34 169 9z
m612 9 c-21 -2 -38 -8 -38 -14 0 -5 -11 -9 -25 -9 -14 0 -25 -5 -25 -11 0 -5
-4 -8 -9 -4 -8 5 -25 -11 -26 -25 -1 -3 -9 -20 -19 -39 -22 -41 -15 -101 12
-101 13 0 14 -2 4 -9 -11 -7 -11 -11 3 -22 9 -8 26 -22 37 -33 25 -22 150 -32
142 -11 -3 7 11 26 30 43 20 17 36 36 36 42 0 5 5 10 10 10 6 0 10 9 10 20 0
11 -4 20 -9 20 -5 0 -9 19 -9 43 -1 41 0 41 13 17 19 -34 19 -115 0 -134 -9
-8 -15 -19 -14 -23 1 -4 -15 -21 -36 -38 -32 -26 -45 -30 -95 -30 -66 0 -99
18 -137 75 -68 98 15 242 137 238 43 -1 44 -2 8 -5z m752 -13 c69 -35 102
-140 66 -208 -61 -117 -232 -117 -292 0 -22 42 -15 125 14 165 44 62 138 81
212 43z m290 10 c-14 -5 -39 -8 -57 -9 -43 -1 -54 -21 -11 -21 18 0 51 -3 72
-7 28 -4 37 -3 32 5 -4 7 -2 12 4 12 6 0 8 5 4 12 -4 7 6 2 23 -10 85 -61 83
-199 -4 -256 -57 -38 -108 -42 -163 -14 -59 30 -90 77 -90 137 0 95 66 159
164 159 39 0 45 -2 26 -8z m1084 -20 c32 -25 34 -28 16 -33 -11 -3 -18 -1 -15
3 14 23 -111 48 -145 30 l-21 -11 21 -19 21 -19 -37 -10 c-27 -7 -42 -7 -51 1
-10 8 -13 3 -13 -25 0 -20 -4 -39 -10 -42 -17 -10 -11 -25 7 -18 12 5 15 2 10
-10 -3 -8 -1 -26 6 -40 l11 -24 18 21 17 21 1 -21 c0 -11 9 -29 20 -39 20 -18
20 -17 20 24 0 59 16 71 94 71 l66 0 0 52 c0 39 3 49 11 41 27 -27 17 -176
-10 -158 -5 3 -11 -4 -13 -16 -8 -55 -145 -79 -208 -36 -91 61 -93 203 -3 263
22 15 48 21 92 22 52 0 65 -3 95 -28z m901 23 c-11 -3 -30 -14 -42 -26 -13
-11 -23 -16 -23 -11 -1 5 -7 -9 -15 -30 -8 -22 -21 -43 -29 -48 -18 -10 -22
-48 -6 -48 6 0 10 -5 10 -11 0 -5 -5 -7 -12 -3 -7 4 -2 -6 10 -23 12 -17 22
-36 22 -43 0 -7 6 -10 14 -7 8 3 24 -5 36 -18 18 -19 30 -23 70 -20 46 3 88
17 83 29 -2 3 -2 5 0 4 9 -7 38 35 43 62 4 17 11 33 16 36 14 9 -2 -48 -21
-76 -67 -95 -212 -94 -271 2 -25 42 -26 121 -2 166 22 41 69 72 107 71 21 -1
24 -3 10 -6z m-2960 -21 c-3 -3 -11 0 -18 7 -9 10 -8 11 6 5 10 -3 15 -9 12
-12z m3068 -2 c3 -11 1 -18 -4 -14 -5 3 -9 12 -9 20 0 20 7 17 13 -6z m-3038
-10 c3 -5 1 -10 -4 -10 -6 0 -11 5 -11 10 0 6 2 10 4 10 3 0 8 -4 11 -10z
m3085 -22 c21 -35 27 -63 10 -53 -5 3 -10 15 -10 26 0 13 -4 18 -12 13 -7 -4
-10 -4 -6 1 4 4 3 16 -3 26 -17 32 0 21 21 -13z m-3303 -120 c-3 -8 -6 -5 -6
6 -1 11 2 17 5 13 3 -3 4 -12 1 -19z m-363 -44 c3 -8 2 -12 -4 -9 -6 3 -10 10
-10 16 0 14 7 11 14 -7z m-446 -141 c64 -48 82 -163 34 -230 -66 -93 -236 -79
-278 23 -32 76 -9 171 51 210 55 36 143 35 193 -3z m1021 -1 c40 -30 63 -77
63 -131 0 -92 -55 -151 -148 -159 -129 -11 -214 116 -158 234 40 85 166 114
243 56z m2351 13 c-1 -5 -9 -9 -18 -7 -52 10 -102 10 -108 0 -4 -7 -2 -8 4 -4
7 4 18 4 25 -1 6 -4 28 -9 47 -10 19 -1 39 -8 45 -16 10 -14 35 -11 46 5 11
17 42 -46 47 -92 4 -52 -12 -105 -30 -94 -6 4 -8 3 -5 -2 3 -6 2 -16 -4 -24
-7 -12 -9 -12 -9 3 0 10 -5 15 -11 12 -6 -4 -8 -13 -5 -21 8 -21 -46 -44 -102
-44 -111 0 -183 117 -138 223 16 39 51 71 89 83 34 11 128 3 127 -11z m697 -1
c53 -40 68 -71 68 -139 0 -71 -19 -106 -71 -137 -126 -73 -273 32 -242 174 10
50 31 78 79 108 43 27 126 24 166 -6z m-4427 -5 c101 -57 107 -209 11 -275
-42 -28 -125 -33 -171 -9 -87 45 -112 169 -50 247 45 58 142 75 210 37z m1011
0 c5 -8 9 -10 9 -5 0 15 50 -36 66 -66 22 -42 18 -110 -8 -148 -39 -57 -72
-75 -138 -75 -66 0 -99 18 -137 75 -47 67 -18 180 55 220 43 24 138 23 153 -1z
m689 1 c75 -38 104 -151 58 -220 -39 -57 -72 -75 -138 -75 -44 1 -67 6 -87 21
-47 35 -73 82 -73 132 0 124 128 199 240 142z m1334 14 c9 -3 13 -11 9 -17 -4
-7 0 -8 11 -4 23 9 74 -47 82 -91 14 -73 -18 -147 -77 -178 -39 -20 -118 -20
-157 0 -102 52 -107 217 -9 276 31 20 107 27 141 14z m716 -28 c0 -3 -4 -8
-10 -11 -5 -3 -10 -1 -10 4 0 6 5 11 10 11 6 0 10 -2 10 -4z m-3276 -211 l17
-30 -20 24 c-12 13 -21 28 -21 34 0 12 0 11 24 -28z m201 -108 c56 -28 87 -80
87 -147 0 -91 -56 -150 -147 -158 -99 -8 -165 47 -173 143 -11 132 116 220
233 162z m2733 -4 c97 -71 97 -214 1 -272 -52 -32 -105 -35 -158 -9 -61 30
-91 77 -91 140 0 72 38 131 100 157 37 16 117 7 148 -16z m650 12 c3 -3 -16
-5 -41 -5 -34 0 -47 -4 -47 -14 0 -17 -40 -18 -40 -1 0 5 -5 2 -11 -8 -6 -9
-14 -15 -20 -12 -10 7 -12 -6 -9 -43 1 -12 -5 -24 -12 -27 -28 -11 -6 -135 23
-135 6 0 25 -10 42 -22 25 -18 43 -22 82 -20 37 2 46 0 35 -7 -23 -16 -95 -13
-133 5 -66 32 -102 123 -77 198 12 37 65 90 81 80 5 -3 9 -1 9 5 0 5 8 11 18
13 24 5 93 0 100 -7z m359 -3 c52 -28 76 -68 81 -133 4 -47 0 -65 -17 -93 -66
-105 -230 -103 -283 4 -22 44 -23 112 -2 156 34 72 147 106 221 66z m-4420 -8
c80 -38 111 -159 60 -234 -67 -101 -228 -94 -283 12 -22 43 -15 134 14 175 42
60 137 81 209 47z m339 0 c19 -9 44 -30 56 -47 22 -31 35 -109 24 -151 -24
-97 -170 -142 -255 -78 -92 69 -80 225 20 275 43 21 111 22 155 1z m694 -7
c77 -51 97 -150 46 -227 -86 -130 -296 -67 -296 89 0 54 30 113 72 140 47 30
133 29 178 -2z m260 8 c0 -17 25 -20 35 -5 3 6 -2 10 -11 10 -10 0 -14 3 -11
6 8 9 67 -16 67 -28 0 -5 4 -7 9 -3 6 3 21 -11 35 -32 59 -86 6 -252 -71 -227
-14 5 -15 4 -4 -4 21 -15 -28 -26 -81 -19 -148 20 -184 219 -54 298 38 23 86
25 86 4z m733 3 c21 -11 21 -11 2 -20 -15 -6 -12 -7 12 -4 27 5 35 1 55 -27
18 -26 23 -45 23 -99 0 -63 -2 -69 -35 -103 -19 -19 -40 -33 -48 -30 -7 2 -10
1 -7 -5 8 -13 -59 -23 -102 -15 -49 9 -109 69 -118 118 -14 75 14 138 79 178
35 21 106 25 139 7z m1032 -2 c19 -8 35 -18 35 -21 0 -3 -10 -1 -22 5 -22 11
-22 10 -4 -4 11 -9 25 -16 31 -16 21 0 45 -58 45 -108 0 -90 -65 -153 -159
-154 -91 0 -149 53 -158 145 -4 45 -1 58 22 93 15 22 39 48 54 57 32 21 110
22 156 3z m1092 -70 c17 -33 14 -129 -5 -148 -8 -8 -10 9 -7 64 4 68 2 79 -20
109 -14 18 -25 35 -25 37 0 12 44 -36 57 -62z m-617 -151 c0 -5 -5 -3 -10 5
-5 8 -10 20 -10 25 0 6 5 3 10 -5 5 -8 10 -19 10 -25z m589 -31 c-13 -16 -33
-19 -24 -4 3 6 1 10 -4 10 -6 0 -11 4 -11 9 0 4 11 6 25 3 20 -3 23 -7 14 -18z
m-742 -75 c43 -16 92 -69 104 -111 21 -81 -34 -177 -115 -199 -134 -36 -247
95 -192 224 32 77 125 116 203 86z m362 -9 c100 -51 116 -187 31 -264 -104
-93 -270 -21 -270 117 0 127 126 205 239 147z m284 9 c-7 -7 -26 -12 -42 -13
-17 -1 -31 -4 -31 -8 0 -5 -6 -8 -14 -8 -8 0 -16 -7 -20 -15 -3 -8 -12 -15
-20 -15 -9 0 -13 -6 -10 -14 3 -8 -2 -28 -11 -45 -14 -27 -14 -31 0 -31 11 0
15 -11 15 -45 0 -46 0 -46 33 -42 17 2 24 2 15 0 -22 -5 -23 -20 -4 -39 26
-25 148 -16 127 10 -9 10 -21 246 -13 246 13 0 42 -23 42 -34 0 -7 7 -13 15
-13 24 0 18 12 -22 40 -21 15 -33 27 -26 27 18 0 72 -49 88 -81 21 -40 19
-117 -5 -156 -24 -41 -87 -73 -141 -73 -95 0 -168 83 -155 178 7 57 30 90 82
119 41 24 118 33 97 12z m394 -6 c107 -50 115 -212 13 -280 -46 -32 -134 -32
-181 0 -96 64 -89 224 12 278 43 23 111 24 156 2z m-4400 -21 c40 -29 63 -79
63 -140 0 -90 -67 -154 -160 -154 -59 0 -105 24 -138 73 -20 28 -23 44 -20 94
4 70 29 113 80 139 46 23 134 17 175 -12z m322 8 c109 -55 111 -220 3 -283
-69 -40 -167 -19 -216 46 -29 40 -30 150 -1 189 49 65 141 86 214 48z m339 6
c60 -31 100 -107 88 -169 -29 -153 -215 -188 -303 -58 -27 39 -31 107 -9 149
16 30 63 77 86 85 30 11 112 7 138 -7z m347 -9 c7 -9 17 -17 23 -17 6 0 20
-15 31 -34 30 -48 28 -125 -3 -175 -44 -70 -160 -92 -225 -44 -50 38 -66 70
-66 133 1 67 18 99 76 138 29 20 43 23 93 20 40 -3 63 -10 71 -21z m685 1 c77
-53 98 -130 58 -208 -59 -115 -203 -124 -282 -17 -16 21 -21 43 -21 87 0 66
18 99 75 138 24 16 47 22 85 22 38 0 61 -6 85 -22z m313 11 c12 -7 24 -15 27
-19 3 -4 14 -12 25 -19 15 -9 16 -11 3 -7 -10 3 -18 1 -18 -4 0 -6 9 -10 20
-10 27 0 40 -29 40 -90 0 -47 -23 -110 -41 -110 -3 0 -16 -9 -29 -20 -74 -64
-214 -16 -240 82 -21 77 6 148 74 189 35 21 106 25 139 8z m707 -11 c46 -32
68 -74 69 -133 2 -94 -68 -160 -166 -159 -120 2 -188 122 -130 234 28 54 73
80 143 80 36 0 61 -6 84 -22z m-573 -190 c-3 -8 -6 -5 -6 6 -1 11 2 17 5 13 3
-3 4 -12 1 -19z m1846 -65 c-7 -2 -19 -2 -25 0 -7 3 -2 5 12 5 14 0 19 -2 13
-5z m-2625 -85 c68 -42 94 -153 50 -218 -40 -58 -72 -75 -141 -75 -77 0 -120
27 -149 93 -66 148 99 285 240 200z m343 -3 c68 -44 91 -150 47 -215 -36 -52
-71 -73 -130 -77 -148 -11 -229 158 -130 268 54 60 141 70 213 24z m982 21
c45 -19 83 -64 97 -114 39 -149 -148 -264 -264 -162 -45 40 -60 79 -54 141 6
62 31 97 88 127 51 25 87 28 133 8z m702 -9 c45 -25 85 -92 85 -141 0 -45 -35
-108 -75 -135 -70 -47 -184 -26 -225 42 -93 152 62 320 215 234z m340 0 c57
-31 90 -100 80 -164 -9 -61 -70 -127 -127 -137 -90 -17 -181 44 -194 129 -8
56 1 91 33 134 48 62 136 79 208 38z m339 0 c141 -79 85 -297 -76 -297 -100 0
-159 53 -166 149 -3 46 0 62 20 91 54 80 143 103 222 57z m333 7 c53 -26 83
-78 83 -144 0 -100 -60 -160 -160 -160 -96 0 -161 65 -160 162 2 119 126 194
237 142z m-4418 -13 c43 -23 70 -59 82 -110 26 -113 -88 -221 -200 -191 -79
21 -121 76 -121 158 0 122 128 199 239 143z m337 3 c119 -57 119 -229 0 -291
-39 -20 -114 -20 -153 0 -76 40 -106 148 -63 225 42 74 138 103 216 66z m362
-10 c32 -24 72 -98 72 -134 0 -40 -42 -113 -79 -137 -43 -29 -121 -31 -171 -4
-75 39 -104 153 -57 222 12 18 38 44 57 57 29 20 44 23 93 20 36 -3 67 -12 85
-24z m1342 8 c53 -26 80 -74 80 -141 0 -83 -48 -151 -97 -135 -13 4 -14 3 -5
-4 11 -7 8 -11 -10 -15 -39 -11 -77 -8 -109 8 -16 9 -27 20 -24 25 3 6 0 7 -8
4 -17 -6 -36 15 -52 61 -15 45 -3 129 22 158 51 57 135 74 203 39z m-1223
-224 c7 -16 11 -28 9 -28 -8 0 -36 58 -35 72 0 9 2 8 6 -2 3 -8 12 -27 20 -42z
m1357 6 c3 -8 2 -12 -4 -9 -6 3 -10 10 -10 16 0 14 7 11 14 -7z m-803 -120
c72 -37 101 -147 59 -222 -42 -75 -144 -104 -220 -63 -44 23 -69 57 -80 107
-31 138 113 245 241 178z m346 -5 c120 -75 80 -273 -59 -295 -117 -19 -214 78
-192 193 8 45 66 110 108 123 42 12 103 4 143 -21z m999 10 c110 -53 121 -208
21 -276 -49 -34 -106 -39 -159 -15 -65 29 -93 72 -93 147 0 73 27 118 89 146
53 24 90 24 142 -2z m678 7 c44 -18 86 -75 93 -124 24 -182 -228 -260 -308
-96 -66 138 72 280 215 220z m342 -2 c65 -31 103 -108 89 -180 -10 -54 -80
-124 -126 -125 -100 -3 -146 20 -180 89 -68 139 77 283 217 216z m362 -10 c32
-24 72 -98 72 -134 0 -40 -42 -113 -79 -137 -43 -29 -121 -31 -171 -4 -50 26
-83 92 -77 154 5 54 28 91 78 125 28 20 44 23 92 20 36 -3 67 -12 85 -24z
m332 3 c99 -66 99 -208 0 -274 -46 -32 -124 -32 -170 0 -57 38 -75 71 -75 137
0 66 18 99 75 138 46 31 124 31 170 -1z m-4431 -7 c54 -27 81 -74 81 -142 0
-41 -6 -64 -23 -88 -89 -133 -297 -75 -297 83 0 128 125 206 239 147z m352 -3
c50 -32 83 -105 75 -162 -13 -82 -81 -137 -168 -137 -97 1 -165 77 -155 175 5
54 28 91 77 125 45 31 124 30 171 -1z m339 1 c57 -39 75 -72 75 -138 0 -66
-18 -99 -75 -137 -39 -27 -116 -31 -159 -8 -95 49 -119 171 -49 251 39 44 59
53 124 53 37 1 60 -5 84 -21z m361 -13 c43 -41 59 -76 59 -128 0 -121 -150
-201 -251 -134 -37 24 -79 97 -79 137 0 41 42 113 80 138 30 20 45 23 97 20
53 -3 68 -9 94 -33z m1017 5 c35 -28 62 -85 62 -131 0 -35 -35 -108 -53 -110
-6 -1 -19 -1 -27 0 -12 2 -13 0 -1 -8 22 -15 -23 -33 -86 -33 -39 -1 -62 5
-81 19 -97 72 -97 212 0 274 47 29 142 23 186 -11z m112 -215 c14 -19 14 -19
-2 -6 -10 7 -18 18 -18 24 0 6 1 8 3 6 1 -2 9 -13 17 -24z m-805 -114 c37 -21
75 -76 75 -107 0 -13 5 -24 10 -24 6 0 10 13 10 30 0 41 60 107 110 120 107
29 210 -51 210 -163 0 -115 -132 -192 -237 -138 -43 21 -83 74 -83 109 0 11
-4 24 -10 27 -6 4 -10 -6 -10 -22 0 -39 -41 -97 -83 -117 -75 -35 -169 -12
-213 53 -31 46 -33 130 -4 178 46 76 144 99 225 54z m665 7 c57 -30 82 -65 87
-125 7 -63 -14 -112 -63 -149 -32 -25 -47 -29 -98 -29 -68 0 -97 16 -136 73
-32 46 -32 129 1 177 27 40 90 75 134 75 17 0 51 -10 75 -22z m685 -1 c146
-83 88 -301 -80 -301 -35 0 -62 7 -87 22 -42 26 -78 92 -78 141 0 60 51 132
110 154 35 13 97 6 135 -16z m692 -3 c44 -33 66 -70 71 -122 14 -155 -173
-238 -280 -124 -80 86 -48 220 62 265 30 13 121 1 147 -19z m340 0 c44 -33 66
-70 70 -121 10 -97 -58 -174 -154 -174 -63 -1 -93 12 -130 55 -45 51 -53 111
-22 173 35 69 79 96 152 91 37 -3 67 -11 84 -24z m333 4 c57 -39 75 -72 75
-138 0 -44 -5 -66 -21 -87 -73 -99 -205 -99 -278 0 -15 21 -21 43 -21 87 0 66
18 99 75 138 24 16 47 22 85 22 38 0 61 -6 85 -22z m341 -1 c50 -32 83 -105
75 -162 -22 -146 -209 -185 -300 -62 -16 21 -21 43 -21 87 0 66 18 99 75 138
45 31 124 30 171 -1z m-4426 -10 c80 -44 105 -151 56 -231 -57 -92 -207 -96
-270 -7 -102 143 60 324 214 238z m346 0 c50 -32 83 -105 75 -162 -13 -81 -79
-136 -166 -137 -96 0 -167 77 -158 174 6 55 28 92 78 126 45 31 124 30 171 -1z
m322 9 c100 -41 127 -185 49 -258 -39 -37 -69 -50 -116 -50 -99 -2 -173 77
-164 173 11 114 124 180 231 135z m357 -8 c57 -39 75 -72 75 -138 0 -44 -5
-66 -21 -87 -74 -99 -204 -99 -278 0 -16 21 -21 43 -21 87 0 66 18 99 75 138
24 16 47 22 85 22 38 0 61 -6 85 -22z m1127 -180 c-3 -8 -6 -5 -6 6 -1 11 2
17 5 13 3 -3 4 -12 1 -19z m-766 -169 c60 -42 78 -148 36 -210 -36 -53 -82
-79 -142 -79 -92 0 -159 68 -159 160 0 136 152 210 265 129z m323 13 c48 -28
69 -66 74 -129 3 -48 0 -64 -20 -92 -50 -74 -122 -97 -203 -67 -75 29 -112
105 -93 188 11 50 58 104 103 118 39 12 102 4 139 -18z m322 9 c62 -28 89 -73
89 -148 0 -47 -5 -68 -21 -89 -53 -72 -131 -92 -208 -55 -102 50 -124 181 -44
258 58 56 114 66 184 34z m362 -8 c15 -11 38 -35 50 -54 20 -28 23 -44 20 -92
-5 -70 -28 -104 -91 -136 -66 -33 -124 -24 -180 29 -38 35 -41 41 -45 103 -5
79 18 125 76 157 47 26 131 22 170 -7z m333 4 c50 -34 79 -82 79 -134 0 -146
-166 -222 -273 -125 -53 48 -66 144 -27 207 44 72 153 98 221 52z m687 -4 c95
-70 96 -208 3 -268 -77 -49 -155 -41 -214 24 -72 80 -52 200 41 251 47 26 130
23 170 -7z m333 4 c76 -51 100 -137 59 -216 -51 -102 -196 -113 -273 -22 -62
74 -32 208 57 247 49 21 118 17 157 -9z m339 2 c74 -42 102 -143 59 -218 -31
-55 -65 -75 -134 -79 -50 -3 -66 0 -94 20 -99 67 -100 209 -1 275 44 30 118
31 170 2z m340 -1 c57 -39 75 -72 75 -138 0 -44 -5 -66 -21 -87 -73 -99 -205
-99 -278 0 -15 21 -21 43 -21 87 0 66 18 99 75 138 24 16 47 22 85 22 38 0 61
-6 85 -22z m-4430 -10 c117 -59 115 -235 -4 -289 -52 -23 -90 -23 -142 0 -62
28 -89 73 -89 147 0 50 5 66 27 96 52 68 129 85 208 46z m357 -4 c44 -33 66
-70 70 -121 18 -180 -229 -249 -308 -87 -39 81 -4 185 75 220 42 20 129 13
163 -12z m340 0 c72 -54 93 -141 52 -214 -57 -100 -182 -116 -261 -32 -58 62
-61 147 -8 214 46 59 158 75 217 32z m345 1 c129 -96 62 -295 -99 -295 -159 0
-216 208 -82 298 28 20 44 23 94 20 40 -2 70 -10 87 -23z m1013 -334 c100 -58
102 -201 3 -274 -40 -30 -116 -34 -165 -9 -125 64 -111 252 22 300 38 14 101
6 140 -17z m343 2 c98 -72 97 -204 -1 -277 -21 -16 -43 -21 -87 -21 -66 0 -99
18 -137 75 -27 39 -31 116 -9 158 18 34 53 68 86 81 37 16 117 7 148 -16z
m340 0 c44 -33 65 -69 70 -122 6 -62 -9 -101 -54 -141 -61 -53 -148 -52 -210
2 -42 37 -56 67 -56 124 0 65 42 128 102 153 37 16 117 7 148 -16z m680 0 c48
-36 72 -81 72 -138 0 -67 -29 -112 -93 -144 -111 -55 -228 21 -229 149 0 64
29 111 85 140 51 26 125 23 165 -7z m340 0 c71 -53 91 -136 52 -214 -28 -54
-71 -79 -140 -79 -86 0 -142 43 -160 125 -16 71 16 142 80 177 45 25 129 20
168 -9z m332 5 c50 -34 72 -71 78 -126 5 -60 -24 -122 -74 -152 -38 -24 -122
-27 -162 -6 -116 60 -116 232 0 289 49 24 118 22 158 -5z m353 -3 c42 -31 70
-98 64 -152 -9 -83 -66 -135 -154 -141 -48 -3 -64 0 -92 20 -100 67 -100 209
0 276 28 20 44 23 94 20 40 -2 70 -10 88 -23z m-4443 -7 c116 -59 118 -221 5
-285 -49 -28 -96 -29 -152 -3 -126 57 -118 249 12 295 56 20 84 18 135 -7z
m365 -13 c96 -72 83 -218 -25 -272 -56 -29 -96 -29 -150 0 -50 26 -90 90 -90
141 0 51 40 118 85 144 55 32 129 27 180 -13z m340 0 c142 -108 29 -332 -144
-285 -107 29 -152 156 -88 250 51 76 159 92 232 35z m661 19 c50 -24 77 -68
82 -133 3 -46 0 -62 -20 -91 -52 -76 -140 -102 -217 -62 -114 57 -111 238 3
288 42 18 111 17 152 -2z m341 0 c106 -51 112 -202 12 -276 -64 -48 -179 -27
-224 40 -32 47 -35 131 -5 180 42 68 138 93 217 56z m-910 -181 c-3 -10 -5 -2
-5 17 0 19 2 27 5 18 2 -10 2 -26 0 -35z m1583 -155 c115 -58 123 -203 17
-282 -40 -29 -134 -29 -174 0 -46 34 -73 82 -73 131 0 81 35 133 107 159 53
19 72 17 123 -8z m344 -1 c57 -33 79 -67 84 -134 3 -48 0 -64 -20 -92 -39 -58
-72 -76 -138 -76 -66 0 -99 18 -137 75 -32 46 -32 124 0 171 26 39 97 79 142
79 16 0 48 -10 69 -23z m685 2 c55 -31 75 -65 79 -134 6 -104 -53 -165 -159
-165 -66 0 -112 26 -140 80 -76 141 82 298 220 219z m346 -4 c49 -28 75 -75
75 -135 0 -162 -207 -225 -297 -90 -33 47 -32 132 1 181 48 71 144 90 221 44z
m329 10 c74 -35 108 -141 71 -219 -52 -110 -221 -118 -285 -14 -27 45 -27 131
0 176 41 67 138 93 214 57z m-3386 -22 c45 -34 72 -81 72 -130 0 -155 -181
-226 -285 -112 -32 36 -35 44 -35 100 0 74 24 120 78 149 47 26 131 22 170 -7z
m340 0 c73 -54 93 -143 49 -216 -34 -56 -72 -77 -137 -77 -101 0 -160 60 -160
161 0 66 26 111 80 141 45 25 129 20 168 -9z m332 6 c108 -61 105 -231 -6
-284 -77 -36 -166 -13 -211 55 -29 42 -31 120 -4 170 39 73 145 102 221 59z
m447 -166 c-3 -10 -5 -4 -5 12 0 17 2 24 5 18 2 -7 2 -21 0 -30z m-340 -15
c-3 -7 -5 -2 -5 12 0 14 2 19 5 13 2 -7 2 -19 0 -25z m1932 -149 c55 -31 75
-65 79 -134 3 -50 0 -66 -20 -94 -32 -48 -76 -71 -135 -72 -83 -2 -147 48
-160 125 -22 139 117 243 236 175z m335 1 c59 -29 80 -63 84 -135 4 -70 -17
-112 -70 -145 -40 -24 -126 -27 -168 -5 -47 24 -80 82 -80 138 0 128 120 203
234 147z m358 -5 c67 -50 88 -152 45 -216 -34 -51 -82 -79 -134 -79 -98 0
-163 64 -163 158 0 65 19 104 68 137 32 23 45 26 97 23 40 -2 69 -10 87 -23z
m328 3 c71 -49 97 -127 67 -199 -48 -115 -224 -131 -287 -26 -27 44 -27 131 0
175 44 72 152 96 220 50z m-3750 -10 c60 -31 90 -77 90 -140 0 -82 -42 -137
-123 -159 -56 -15 -118 4 -157 48 -36 40 -44 69 -38 132 6 58 30 94 83 121 52
26 90 25 145 -2z m358 -5 c75 -56 96 -154 47 -226 -89 -130 -295 -71 -295 85
0 72 38 131 100 157 37 16 117 7 148 -16z m326 7 c58 -29 80 -63 84 -135 3
-50 0 -66 -20 -94 -33 -50 -78 -73 -139 -73 -94 1 -159 64 -159 155 0 127 121
203 234 147z m343 3 c19 -9 46 -33 60 -54 22 -33 25 -47 21 -97 -7 -99 -65
-152 -165 -152 -121 0 -193 134 -130 244 40 70 135 97 214 59z m339 1 c51 -24
77 -68 82 -134 7 -94 -49 -160 -143 -168 -99 -8 -165 47 -173 143 -8 101 56
175 151 175 27 0 64 -7 83 -16z m-1781 -3 c3 -5 -9 -11 -27 -13 -27 -2 -35 -9
-43 -35 -5 -18 -15 -33 -21 -33 -7 0 -23 -14 -35 -31 -17 -24 -19 -33 -9 -39
7 -4 14 -27 16 -50 1 -24 7 -47 13 -53 13 -13 14 -6 11 66 -1 28 3 47 9 47 6
0 11 -16 11 -35 0 -19 4 -35 9 -35 5 0 13 -9 16 -20 3 -11 13 -20 21 -20 20 0
18 -18 -3 -24 -10 -2 -4 -4 12 -3 17 1 36 -3 44 -7 7 -5 16 -4 20 1 3 5 16 9
29 9 22 0 22 -1 6 -13 -26 -19 -129 -17 -148 3 -9 8 -16 12 -16 8 0 -13 -42
30 -56 58 -18 35 -18 111 1 148 17 33 63 72 76 64 5 -3 9 0 9 5 0 13 47 15 55
2z m135 -51 c12 -17 19 -38 16 -46 -3 -8 -2 -12 4 -9 13 8 13 -75 0 -95 -7
-11 -10 -3 -10 28 0 24 -4 41 -9 38 -5 -3 -8 12 -7 33 0 22 -1 38 -4 36 -3 -2
-21 8 -40 21 -24 17 -29 24 -17 24 11 0 15 5 11 11 -15 25 36 -12 56 -41z
m2097 -102 c-2 -13 -4 -5 -4 17 -1 22 1 32 4 23 2 -10 2 -28 0 -40z m-2720
-10 c-3 -8 -6 -5 -6 6 -1 11 2 17 5 13 3 -3 4 -12 1 -19z m608 -96 c-13 -14
-16 -14 -13 -2 4 21 22 40 27 28 2 -5 -4 -17 -14 -26z m3020 -73 c33 -15 49
-32 65 -63 34 -72 25 -139 -27 -196 -23 -23 -23 -24 -23 -2 0 12 9 26 20 32
11 6 17 16 14 22 -4 6 -3 8 3 5 6 -4 14 4 17 18 8 32 -4 106 -16 99 -5 -4 -8
4 -6 17 2 18 -2 24 -14 23 -10 -1 -18 3 -18 9 0 12 -31 36 -48 37 -7 0 -10 -5
-7 -11 4 -5 -1 -19 -11 -30 -13 -14 -20 -16 -31 -8 -19 16 -16 29 7 29 11 0
20 5 20 11 0 10 -16 9 -70 -5 -8 -3 -21 -5 -28 -5 -7 -1 -10 -6 -7 -11 4 -6 1
-18 -6 -26 -10 -12 -14 -12 -20 -2 -10 16 -11 13 -11 -92 0 -68 2 -75 21 -78
12 -2 21 -10 21 -17 0 -40 91 -61 143 -33 20 10 21 10 8 -5 -22 -28 -118 -23
-162 7 -66 45 -87 131 -50 205 24 45 39 59 88 77 53 18 76 17 128 -7z m353 -6
c14 -10 28 -25 30 -32 2 -7 -7 -1 -22 13 -24 25 -60 34 -69 19 -2 -5 -2 -2 0
5 2 10 -5 12 -30 7 -17 -4 -37 -11 -42 -16 -6 -4 -17 -4 -25 1 -12 7 -10 11
10 19 37 16 117 7 148 -16z m300 21 c37 -10 25 -20 -27 -21 -50 -1 -111 -28
-111 -49 0 -6 -9 -14 -20 -17 -12 -3 -20 -14 -20 -26 0 -12 -4 -21 -9 -21 -9
0 -6 -28 6 -60 4 -8 5 -21 4 -28 -1 -8 7 -16 19 -19 13 -3 19 -11 16 -19 -5
-13 6 -18 27 -15 4 0 7 -4 7 -10 0 -5 3 -8 8 -6 4 3 21 -1 37 -8 l30 -13 -27
-1 c-16 -1 -28 4 -28 10 0 5 -4 7 -10 4 -13 -8 -61 21 -84 52 -21 29 -31 88
-22 136 7 36 65 104 75 88 4 -6 12 -6 21 -1 13 9 13 10 0 10 -13 0 -13 1 0 10
17 11 73 13 108 4z m287 -5 c-22 -5 -46 -10 -52 -12 -64 -16 -109 -116 -79
-176 9 -16 16 -37 16 -46 0 -9 4 -14 9 -10 6 3 14 -2 19 -12 5 -9 29 -25 53
-35 43 -18 43 -19 9 -13 -121 19 -173 176 -88 267 28 30 70 47 118 46 l35 0
-40 -9z m-3707 -14 c5 -5 -27 -9 -70 -9 -10 0 -15 -6 -13 -17 2 -10 -3 -20
-11 -23 -8 -3 -14 -15 -14 -26 0 -17 -4 -20 -20 -15 -19 6 -20 2 -20 -57 0
-44 -3 -59 -10 -48 -5 8 -8 38 -5 65 l4 50 -10 -48 c-9 -39 -8 -51 5 -72 9
-13 16 -31 16 -39 0 -9 11 -18 24 -22 24 -6 67 -44 50 -44 -21 0 -76 42 -94
72 -35 58 -21 158 28 201 38 34 119 53 140 32z m361 5 c37 -10 77 -43 93 -75
5 -11 -4 -5 -22 13 -18 20 -37 31 -46 28 -8 -3 -14 0 -14 8 0 8 -9 16 -20 19
-11 3 -20 1 -20 -4 0 -5 -13 -8 -29 -7 -33 2 -81 -26 -88 -53 -3 -10 -10 -19
-15 -19 -6 0 -8 -9 -5 -21 7 -26 -2 -51 -15 -43 -6 4 -5 -4 2 -16 6 -12 10
-31 7 -41 -3 -10 -1 -19 4 -19 5 0 9 5 9 11 0 5 5 7 10 4 8 -5 7 -11 -1 -21
-8 -10 -8 -14 0 -14 6 0 11 -7 11 -16 0 -10 6 -13 19 -9 12 3 21 0 25 -10 3
-10 21 -16 53 -17 l48 -2 -47 -3 c-94 -8 -158 48 -166 143 -10 115 93 197 207
164z m365 -10 c58 -29 80 -63 84 -135 3 -54 1 -64 -27 -102 -17 -22 -45 -46
-62 -52 l-30 -10 18 29 c9 16 20 27 25 24 5 -3 6 -10 3 -15 -3 -5 1 -6 9 -3 8
3 17 13 20 21 5 13 0 15 -34 10 -37 -5 -39 -4 -29 15 6 11 16 18 22 15 49 -18
57 -18 65 2 10 28 2 132 -9 106 -6 -16 -8 -14 -7 10 2 33 -7 55 -23 55 -6 0
-7 -5 -3 -12 4 -7 3 -8 -4 -4 -6 4 -9 13 -6 20 6 16 -8 22 -70 31 -37 6 -47 4
-52 -9 -8 -21 -3 -27 25 -29 11 -1 21 -5 21 -9 0 -4 -29 -8 -65 -8 -62 0 -65
-1 -65 -25 0 -13 -5 -36 -12 -50 -9 -20 -9 -31 0 -45 6 -11 9 -27 5 -36 -5
-14 -3 -15 12 -7 20 11 55 6 55 -8 0 -5 -4 -9 -9 -9 -5 0 -12 -7 -15 -16 -3
-8 -2 -12 4 -9 6 4 7 -1 3 -11 -4 -11 -3 -15 5 -10 6 3 13 2 17 -4 3 -5 25
-11 48 -12 38 -1 39 -2 9 -5 -19 -3 -41 -1 -50 3 -10 4 -19 8 -22 8 -25 6 -53
33 -70 66 -74 144 70 291 214 220z m336 6 l24 -14 -31 2 c-18 1 -35 5 -39 9
-4 4 -18 7 -31 7 -16 0 -23 -6 -23 -19 0 -11 5 -23 10 -26 6 -4 5 -12 -4 -21
-17 -16 -33 -18 -38 -4 -3 11 -49 23 -46 12 1 -4 -3 -17 -10 -29 -7 -13 -9
-23 -3 -23 5 0 12 -20 15 -45 6 -36 11 -45 27 -45 10 0 19 -5 19 -11 0 -5 -4
-7 -10 -4 -5 3 -10 -1 -10 -9 0 -18 16 -21 25 -6 9 14 63 9 69 -7 3 -7 15 -13
27 -13 15 0 19 5 15 15 -3 9 0 15 10 15 9 0 24 10 35 23 18 21 18 21 19 2 0
-15 2 -17 9 -7 7 11 9 11 14 -2 4 -9 2 -16 -4 -16 -6 0 -8 -4 -5 -8 2 -4 0
-14 -6 -22 -8 -13 -9 -12 -5 2 3 9 0 19 -7 21 -10 4 -12 -1 -8 -15 4 -16 2
-19 -9 -13 -12 7 -12 6 -1 -7 10 -13 10 -17 -3 -22 -9 -3 -13 -2 -10 4 3 6 -4
10 -16 10 -18 0 -19 -3 -9 -15 10 -12 8 -15 -12 -20 -52 -13 -157 13 -143 35
4 6 -1 7 -11 3 -14 -5 -16 -3 -11 11 4 10 3 15 -3 11 -13 -8 -40 55 -40 95 0
62 49 129 110 153 28 10 95 6 120 -7z m320 8 c18 -4 48 -23 68 -42 35 -36 35
-36 14 -50 -12 -8 -22 -21 -22 -28 0 -17 -16 -18 -26 -2 -4 7 -3 8 4 4 7 -4
14 3 18 18 7 31 -4 52 -19 37 -12 -12 -66 -15 -91 -5 -9 3 -16 15 -16 25 0 16
-5 19 -27 15 -16 -2 -35 -5 -43 -5 -12 -1 -12 -3 -2 -9 10 -7 9 -14 -6 -33
-25 -32 -33 -57 -22 -64 6 -4 10 4 10 17 0 24 16 48 32 48 4 0 8 -20 8 -45 0
-33 4 -45 15 -45 10 0 15 -10 15 -30 0 -28 2 -30 40 -30 29 0 40 -4 40 -15 0
-8 -10 -16 -22 -17 -13 -1 -31 -2 -40 -3 -9 0 -21 -5 -25 -9 -4 -5 -2 -6 5 -2
8 5 12 0 12 -13 0 -17 7 -21 38 -22 33 -2 34 -2 7 -6 -103 -16 -191 84 -170
194 7 40 77 119 95 108 5 -3 10 -1 10 4 0 12 51 14 100 5z m298 -1 c-10 -2
-26 -2 -35 0 -10 3 -2 5 17 5 19 0 27 -2 18 -5z m387 -4 c-4 -6 -19 -7 -36 -4
-40 9 -68 -2 -62 -24 3 -11 -2 -21 -12 -25 -13 -4 -15 -2 -10 13 8 25 -9 35
-25 16 -7 -8 -8 -15 -3 -15 13 0 33 -45 33 -75 0 -20 -5 -25 -25 -25 -17 0
-25 6 -26 18 0 9 -5 4 -9 -11 -5 -16 -5 -38 0 -50 5 -12 9 -16 9 -9 1 6 13 12
27 12 25 0 26 -2 21 -37 -4 -20 -12 -40 -19 -45 -14 -8 -8 -10 31 -12 28 -1
42 -26 14 -26 -32 0 -82 38 -103 79 -46 91 -5 193 90 224 30 10 111 7 105 -4z
m265 0 c13 -10 13 -10 0 -6 -26 8 -60 -11 -60 -34 0 -19 -2 -20 -17 -8 -11 10
-14 10 -9 2 4 -7 2 -13 -4 -13 -12 0 -2 -53 12 -58 4 -2 8 -24 8 -49 0 -27 6
-51 15 -60 12 -11 13 -19 5 -28 -17 -20 4 -28 45 -16 19 5 35 8 35 6 0 -2 3
-10 6 -19 10 -26 -66 -21 -106 7 -92 62 -91 206 2 266 38 24 47 25 68 10z m73
4 c-7 -2 -19 -2 -25 0 -7 3 -2 5 12 5 14 0 19 -2 13 -5z m-2379 -15 c-4 -7 -3
-8 5 -4 16 11 58 -19 81 -57 11 -18 20 -35 20 -39 0 -13 -30 -9 -32 5 0 6 -2
17 -3 22 -2 6 -3 16 -4 23 -1 9 -8 11 -20 7 -11 -3 -29 0 -40 7 -22 13 -29 48
-10 48 5 0 7 -5 3 -12z m1586 2 c-12 -8 -10 -10 10 -9 40 3 60 0 60 -11 0 -5
-7 -7 -15 -4 -11 5 -13 2 -9 -10 5 -12 0 -16 -20 -16 -16 0 -26 6 -26 15 0 8
-5 15 -10 15 -6 0 -13 -7 -16 -15 -4 -8 -12 -15 -20 -15 -8 0 -14 -10 -14 -25
0 -14 -4 -25 -10 -25 -5 0 -10 -11 -10 -25 0 -14 5 -25 10 -25 6 0 10 10 10
23 0 18 2 19 10 7 5 -8 10 -39 10 -68 0 -46 3 -54 24 -61 29 -12 45 -44 18
-39 -9 2 -16 9 -15 16 2 6 -3 9 -11 6 -18 -7 -64 53 -72 94 -4 17 -3 47 0 67
8 40 69 115 95 115 14 0 14 -2 1 -10z m500 -6 c0 -2 -7 -4 -15 -4 -8 0 -15 4
-15 10 0 5 7 7 15 4 8 -4 15 -8 15 -10z m1376 -11 c-6 -6 -36 9 -36 18 0 5 9
4 20 -3 10 -7 18 -14 16 -15z m340 -5 c16 -18 22 -27 13 -20 -9 6 -19 10 -22
7 -4 -3 -5 -2 -2 2 3 3 -2 15 -12 25 -9 10 -14 18 -11 18 2 0 17 -14 34 -32z
m-3169 16 c-3 -3 -12 -4 -19 -1 -8 3 -5 6 6 6 11 1 17 -2 13 -5z m340 0 c-3
-3 -12 -4 -19 -1 -8 3 -5 6 6 6 11 1 17 -2 13 -5z m775 -13 c-1 -7 2 -10 7 -7
5 3 14 -1 21 -9 11 -13 9 -15 -11 -11 -13 3 -27 5 -31 5 -5 1 -8 10 -8 22 0
12 5 19 13 16 6 -2 11 -10 9 -16z m1153 -41 c-10 -39 -11 -57 -3 -67 7 -9 7
-13 -1 -13 -6 0 -11 5 -11 10 0 6 -7 10 -15 10 -19 0 -19 -8 0 -54 13 -32 20
-36 50 -36 19 0 35 -4 35 -10 0 -5 -9 -10 -20 -10 -12 0 -20 -7 -20 -16 0 -11
5 -14 16 -10 9 4 24 0 33 -8 9 -8 32 -17 51 -19 29 -4 28 -5 -10 -4 -44 0
-120 32 -120 49 0 5 5 6 12 2 7 -4 8 -3 4 5 -4 6 -11 9 -16 6 -14 -9 -40 50
-40 89 0 19 5 47 11 63 10 27 49 76 55 70 2 -2 -3 -27 -11 -57z m-1800 10 c18
-29 25 -53 25 -91 0 -65 -6 -61 -13 10 -6 55 -17 70 -52 72 -11 0 -14 3 -7 6
6 2 12 13 12 24 0 28 7 24 35 -21z m-810 11 c-8 -14 -25 -14 -25 0 0 5 5 7 10
4 6 -3 10 -1 10 6 0 7 3 10 6 6 3 -3 3 -10 -1 -16z m1805 9 c0 -5 -2 -10 -4
-10 -3 0 -8 5 -11 10 -3 6 -1 10 4 10 6 0 11 -4 11 -10z m363 -24 c-5 -7 -9
-5 -11 7 -2 9 -8 14 -14 11 -7 -4 -8 -2 -4 5 6 9 11 9 22 0 7 -6 11 -16 7 -23z
m531 19 c-4 -8 -10 -15 -15 -15 -5 0 -9 7 -9 15 0 8 7 15 15 15 9 0 12 -6 9
-15z m-2304 1 c0 -3 -4 -8 -10 -11 -5 -3 -10 -1 -10 4 0 6 5 11 10 11 6 0 10
-2 10 -4z m325 -6 c3 -5 -1 -10 -9 -10 -9 0 -16 5 -16 10 0 6 4 10 9 10 6 0
13 -4 16 -10z m1120 -20 c8 -16 15 -50 15 -75 0 -41 -22 -105 -36 -105 -3 0
-2 5 1 10 9 15 -7 12 -29 -5 -28 -21 -38 -19 -24 5 7 11 23 20 35 20 36 0 43
24 35 121 -1 11 -6 17 -12 14 -6 -4 -10 5 -10 19 0 34 6 33 25 -4z m1360 0 c8
-16 14 -48 13 -72 -1 -39 -2 -40 -5 -8 -6 57 -13 81 -23 75 -5 -3 -8 4 -7 15
2 26 4 25 22 -10z m-1687 -89 c-2 -34 -10 -67 -18 -74 -11 -10 -11 -8 -5 8 5
11 8 49 7 85 -2 48 0 62 9 53 7 -7 10 -34 7 -72z m682 18 c0 -28 -6 -62 -14
-77 -17 -32 -56 -70 -56 -54 0 7 -5 12 -11 12 -6 0 -8 -7 -5 -16 3 -8 2 -12
-4 -9 -6 3 -10 1 -10 -4 0 -6 -4 -11 -10 -11 -5 0 -10 9 -10 20 0 11 6 20 14
20 7 0 20 8 27 17 10 11 10 14 2 9 -7 -4 -13 -2 -13 3 0 17 18 13 30 -6 9 -15
10 -13 7 14 -2 18 0 30 5 27 4 -3 8 -13 8 -22 0 -26 18 -1 24 35 5 23 2 34
-10 41 -11 6 -14 14 -8 23 5 8 9 17 10 22 1 4 2 10 3 13 0 3 6 2 11 -1 6 -3
10 -29 10 -56z m-1020 0 c0 -60 -22 -111 -56 -134 -24 -16 -25 -16 -12 7 7 12
19 28 26 36 24 26 33 53 26 75 -16 46 -14 67 7 67 5 0 9 -23 9 -51z m-1020 -5
c0 -43 -27 -121 -38 -110 -3 3 1 12 7 20 7 8 13 42 14 75 2 71 17 83 17 15z
m2711 -51 c-8 -14 -10 -7 -11 33 0 28 3 54 8 58 11 12 14 -72 3 -91z m686 50
c-3 -10 -5 -2 -5 17 0 19 2 27 5 18 2 -10 2 -26 0 -35z m-4390 -20 c-3 -10 -5
-2 -5 17 0 19 2 27 5 18 2 -10 2 -26 0 -35z m649 -10 c-11 -11 -19 6 -11 24 8
17 8 17 12 0 3 -10 2 -21 -1 -24z m1004 15 c0 -18 -2 -20 -9 -8 -6 8 -7 18 -5
22 9 14 14 9 14 -14z m-1007 -46 c-6 -13 -8 -13 -14 4 -4 10 -8 13 -8 6 -1 -7
-6 -10 -12 -6 -8 4 -7 9 2 14 18 12 39 1 32 -18z m660 13 c-3 -9 -8 -14 -10
-11 -3 3 -2 9 2 15 9 16 15 13 8 -4z m2737 -3 c0 -5 -7 -17 -15 -28 -14 -18
-14 -17 -4 9 12 27 19 34 19 19z m-4026 -28 c3 -8 2 -12 -4 -9 -6 3 -10 10
-10 16 0 14 7 11 14 -7z m610 -17 c-12 -21 -37 -47 -45 -47 -4 0 -2 11 4 25 7
14 18 25 25 25 7 0 10 5 6 12 -4 7 -3 8 5 4 6 -4 8 -13 5 -19z m1666 13 c0 -5
-6 -10 -14 -10 -8 0 -18 5 -21 10 -3 6 3 10 14 10 12 0 21 -4 21 -10z m1371
-19 c-6 -11 -21 -26 -32 -32 -13 -6 -19 -7 -15 -1 3 6 0 13 -6 16 -7 4 -3 4
10 2 18 -3 25 2 33 21 5 14 12 23 15 20 3 -3 1 -15 -5 -26z m699 16 c0 -2 -10
-12 -22 -23 l-23 -19 19 23 c18 21 26 27 26 19z m-3436 -54 c-10 -7 -23 -13
-28 -13 -6 0 -3 5 8 11 15 9 16 13 5 21 -11 8 -10 9 4 4 10 -3 17 0 18 7 0 8
3 7 6 -2 3 -8 -2 -20 -13 -28z m1362 11 c-15 -14 -31 -22 -35 -18 -3 4 0 9 7
11 6 3 9 10 5 16 -4 6 0 8 10 4 9 -3 19 -2 22 3 4 6 9 10 13 10 4 0 -6 -12
-22 -26z m1983 5 c-11 -7 -9 -9 6 -9 16 0 17 -2 5 -10 -9 -6 -17 -5 -21 2 -10
15 1 39 13 32 6 -4 5 -10 -3 -15z m-1638 -3 c-16 -19 -49 -26 -54 -11 -4 8 3
11 19 9 13 -1 26 2 30 7 3 5 8 9 11 9 3 0 0 -6 -6 -14z m1350 1 c-7 -7 -14 -8
-21 -1 -6 6 -2 10 12 11 16 2 18 -1 9 -10z m-3448 -34 c-13 -2 -33 -2 -45 0
-13 2 -3 4 22 4 25 0 35 -2 23 -4z m1670 0 c-7 -2 -21 -2 -30 0 -10 3 -4 5 12
5 17 0 24 -2 18 -5z"/>
<path d="M2331 4984 c0 -11 3 -14 6 -6 3 7 2 16 -1 19 -3 4 -6 -2 -5 -13z"/>
<path d="M2285 4790 c4 -6 11 -8 16 -5 14 9 11 15 -7 15 -8 0 -12 -5 -9 -10z"/>
<path d="M2198 4773 c7 -3 16 -2 19 1 4 3 -2 6 -13 5 -11 0 -14 -3 -6 -6z"/>
<path d="M2568 4709 c-19 -11 -25 -49 -8 -49 6 0 10 -9 10 -20 0 -13 7 -20 20
-20 13 0 20 7 20 20 0 11 5 20 10 20 6 0 10 11 10 25 0 19 -4 23 -17 18 -11
-4 -14 -3 -9 5 9 15 -12 15 -36 1z"/>
<path d="M2474 4681 c-45 -60 -68 -141 -40 -141 9 0 12 -7 9 -20 -7 -28 24
-60 59 -60 l28 0 0 85 c0 50 4 85 10 85 6 0 10 7 10 15 0 8 -4 15 -10 15 -5 0
-10 11 -10 24 0 33 -30 31 -56 -3z"/>
<path d="M2661 4474 c0 -11 3 -14 6 -6 3 7 2 16 -1 19 -3 4 -6 -2 -5 -13z"/>
<path d="M2560 4460 c-8 -5 -28 -10 -44 -10 -16 0 -27 -3 -23 -6 9 -9 107 6
107 17 0 12 -21 11 -40 -1z"/>
<path d="M3041 4554 c0 -11 3 -14 6 -6 3 7 2 16 -1 19 -3 4 -6 -2 -5 -13z"/>
<path d="M2505 4368 c-8 -5 -15 -15 -15 -23 0 -8 -13 -22 -30 -32 -16 -9 -30
-20 -30 -23 0 -3 -4 -21 -9 -40 -8 -34 -7 -36 18 -34 14 1 68 2 119 3 81 1 92
3 92 19 0 10 5 23 12 30 9 9 9 15 0 24 -9 9 -12 7 -12 -10 0 -12 -4 -22 -10
-22 -5 0 -10 18 -10 40 0 31 4 40 18 40 11 0 6 7 -16 20 -34 21 -96 25 -127 8z
m-15 -98 c0 -5 -5 -10 -11 -10 -5 0 -7 5 -4 10 3 6 8 10 11 10 2 0 4 -4 4 -10z"/>
<path d="M2690 4231 c0 -26 15 -35 17 -11 1 11 -2 22 -8 25 -5 4 -9 -3 -9 -14z"/>
<path d="M2431 4195 c1 -19 18 -51 18 -35 0 8 -4 22 -9 30 -5 8 -9 11 -9 5z"/>
<path d="M2676 4159 c3 -6 0 -16 -7 -21 -12 -8 -11 -9 1 -5 18 4 27 37 10 37
-6 0 -8 -5 -4 -11z"/>
<path d="M2460 4152 c0 -5 7 -9 15 -9 8 0 12 4 9 9 -3 4 -9 8 -15 8 -5 0 -9
-4 -9 -8z"/>
<path d="M2805 4340 c3 -5 1 -11 -5 -15 -15 -10 -12 -35 5 -35 8 0 15 -8 15
-17 0 -15 -2 -16 -10 -3 -8 12 -10 12 -10 1 0 -8 -7 -11 -20 -8 -16 4 -20 0
-20 -22 0 -15 7 -36 16 -47 8 -10 13 -13 9 -6 -4 7 0 12 9 12 9 0 16 5 16 10
0 6 9 10 20 10 16 0 20 7 22 40 1 22 2 48 2 57 1 10 -10 19 -27 24 -15 4 -25
3 -22 -1z"/>
<path d="M3010 4158 c0 -12 3 -18 7 -14 11 10 12 36 2 36 -5 0 -9 -10 -9 -22z"/>
<path d="M2838 4143 c12 -2 30 -2 40 0 9 3 -1 5 -23 4 -22 0 -30 -2 -17 -4z"/>
<path d="M2972 4127 c-31 -33 -27 -43 5 -13 15 14 25 28 22 31 -3 3 -15 -5
-27 -18z"/>
<path d="M2860 4101 c8 -6 28 -11 44 -11 39 0 31 6 -19 14 -29 5 -36 4 -25 -3z"/>
<path d="M3948 4373 c7 -3 16 -2 19 1 4 3 -2 6 -13 5 -11 0 -14 -3 -6 -6z"/>
<path d="M4051 4201 c-8 -5 -10 -14 -6 -21 6 -9 10 -8 17 4 12 21 7 28 -11 17z"/>
<path d="M3960 4135 c0 -8 7 -15 15 -15 8 0 15 7 15 15 0 8 -7 15 -15 15 -8 0
-15 -7 -15 -15z"/>
<path d="M4290 3986 c0 -2 7 -6 15 -10 8 -3 15 -1 15 4 0 6 -7 10 -15 10 -8 0
-15 -2 -15 -4z"/>
<path d="M4180 3955 c0 -8 9 -15 20 -15 11 0 20 7 20 15 0 8 -9 15 -20 15 -11
0 -20 -7 -20 -15z"/>
<path d="M4375 3950 c-3 -5 1 -10 10 -10 9 0 13 5 10 10 -3 6 -8 10 -10 10 -2
0 -7 -4 -10 -10z"/>
<path d="M4129 3919 c-9 -17 -8 -23 2 -30 26 -16 39 -9 39 21 0 36 -24 41 -41
9z"/>
<path d="M4402 3905 c0 -16 2 -22 5 -12 2 9 2 23 0 30 -3 6 -5 -1 -5 -18z"/>
<path d="M4363 3863 c-19 -7 -15 -23 5 -23 10 0 19 7 19 15 0 16 -4 17 -24 8z"/>
<path d="M4120 3851 c0 -6 4 -13 10 -16 6 -3 7 1 4 9 -7 18 -14 21 -14 7z"/>
<path d="M4225 3780 c-16 -7 -17 -9 -3 -9 9 -1 20 4 23 9 7 11 7 11 -20 0z"/>
<path d="M4250 3766 c0 -8 51 -13 56 -5 3 5 -9 9 -25 9 -17 0 -31 -2 -31 -4z"/>
<path d="M1533 4027 c24 -10 28 -16 25 -47 -3 -32 -6 -35 -39 -38 -29 -2 -37
1 -42 17 -3 14 1 21 18 25 13 3 25 12 28 20 9 23 -28 25 -62 4 -30 -19 -30
-21 -14 -34 16 -13 16 -14 -8 -8 -17 3 -26 1 -27 -8 0 -7 -2 -36 -4 -64 -3
-33 0 -54 9 -63 7 -6 13 -8 14 -4 1 4 4 -3 8 -17 5 -17 16 -27 36 -31 20 -4
23 -7 10 -8 -18 -2 -18 -3 5 -16 29 -16 84 -20 75 -5 -3 6 3 10 14 10 41 0 71
22 71 52 0 15 -4 28 -9 28 -6 0 -9 23 -9 50 2 69 14 63 22 -11 7 -55 9 -59 21
-43 26 34 17 124 -11 124 -8 0 -14 7 -14 15 0 9 -11 21 -25 27 -14 6 -25 15
-25 19 0 4 -7 10 -16 13 -8 3 -12 2 -9 -4 3 -6 2 -10 -4 -10 -5 0 -13 5 -16
10 -3 6 -16 10 -28 9 -20 -1 -19 -2 6 -12z m7 -267 c0 -5 -7 -7 -15 -4 -8 4
-15 8 -15 10 0 2 7 4 15 4 8 0 15 -4 15 -10z"/>
<path d="M2170 4011 c-17 -17 -29 -35 -25 -41 3 -5 -3 -10 -14 -10 -11 0 -23
-5 -26 -10 -4 -6 -10 -8 -15 -5 -4 3 -8 -11 -7 -31 1 -20 3 -32 5 -25 2 7 40
11 113 11 102 0 109 1 109 20 0 14 6 19 21 17 12 -1 24 5 26 13 4 13 3 13 -6
0 -9 -12 -11 -12 -16 2 -4 10 -4 22 -1 27 8 12 -36 43 -67 47 -12 2 -32 6 -44
10 -17 5 -30 -2 -53 -25z"/>
<path d="M2335 3810 c3 -5 8 -10 11 -10 2 0 4 5 4 10 0 6 -5 10 -11 10 -5 0
-7 -4 -4 -10z"/>
<path d="M3538 4023 c6 -2 18 -2 25 0 6 3 1 5 -13 5 -14 0 -19 -2 -12 -5z"/>
<path d="M3480 4000 c0 -5 5 -10 11 -10 5 0 7 5 4 10 -3 6 -8 10 -11 10 -2 0
-4 -4 -4 -10z"/>
<path d="M3436 3913 c-6 -14 -5 -15 5 -6 7 7 10 15 7 18 -3 3 -9 -2 -12 -12z"/>
<path d="M3510 3810 c0 -21 16 -44 23 -33 4 6 0 19 -8 29 -11 15 -14 16 -15 4z"/>
<path d="M1810 3669 c0 -5 -5 -7 -12 -3 -6 4 -8 3 -5 -3 4 -6 -2 -18 -13 -28
-11 -10 -20 -27 -20 -37 0 -11 -3 -17 -7 -15 -5 3 -8 -10 -9 -29 0 -19 3 -29
7 -23 4 6 10 -8 14 -32 6 -36 9 -40 16 -24 6 17 8 17 8 3 1 -19 31 -26 31 -8
0 6 7 10 15 10 10 0 15 10 15 30 0 28 2 30 40 30 37 0 40 2 40 29 0 25 -3 28
-25 23 -27 -5 -30 3 -16 42 9 22 7 26 -21 35 -39 14 -58 14 -58 0z"/>
<path d="M2008 3540 c-4 -71 13 -64 20 9 3 32 1 51 -6 51 -6 0 -12 -27 -14
-60z"/>
<path d="M1960 3460 c0 -5 5 -10 10 -10 6 0 10 5 10 10 0 6 -4 10 -10 10 -5 0
-10 -4 -10 -10z"/>
<path d="M1880 3410 c0 -6 7 -10 15 -10 8 0 15 2 15 4 0 2 -7 6 -15 10 -8 3
-15 1 -15 -4z"/>
<path d="M2430 3587 c0 -13 -4 -27 -8 -32 -5 -6 -3 -21 4 -35 13 -24 13 -24
12 10 0 19 3 45 7 58 5 14 3 22 -4 22 -6 0 -11 -10 -11 -23z"/>
<path d="M2701 3574 c0 -11 3 -14 6 -6 3 7 2 16 -1 19 -3 4 -6 -2 -5 -13z"/>
<path d="M2668 3523 c7 -3 16 -2 19 1 4 3 -2 6 -13 5 -11 0 -14 -3 -6 -6z"/>
<path d="M2650 3449 c0 -5 5 -7 10 -4 6 3 10 8 10 11 0 2 -4 4 -10 4 -5 0 -10
-5 -10 -11z"/>
<path d="M2558 3403 c7 -3 16 -2 19 1 4 3 -2 6 -13 5 -11 0 -14 -3 -6 -6z"/>
<path d="M3465 3630 c-3 -5 1 -10 9 -10 9 0 16 5 16 10 0 6 -4 10 -9 10 -6 0
-13 -4 -16 -10z"/>
<path d="M3696 3632 c-3 -5 1 -9 9 -9 8 0 12 4 9 9 -3 4 -7 8 -9 8 -2 0 -6 -4
-9 -8z"/>
<path d="M3442 3555 c0 -16 2 -22 5 -12 2 9 2 23 0 30 -3 6 -5 -1 -5 -18z"/>
<path d="M3696 3493 c-6 -14 -5 -15 5 -6 7 7 10 15 7 18 -3 3 -9 -2 -12 -12z"/>
<path d="M4731 3234 c0 -11 3 -14 6 -6 3 7 2 16 -1 19 -3 4 -6 -2 -5 -13z"/>
<path d="M4741 3194 c0 -11 3 -14 6 -6 3 7 2 16 -1 19 -3 4 -6 -2 -5 -13z"/>
<path d="M4689 3134 c-9 -11 -9 -18 -1 -26 9 -9 12 -8 12 4 0 9 8 18 18 20 16
3 16 4 0 10 -9 4 -22 1 -29 -8z"/>
<path d="M1454 3322 c-16 -13 -23 -21 -16 -17 10 5 13 2 10 -10 -2 -15 -11
-22 -47 -42 -2 -1 2 -16 7 -33 7 -18 7 -28 2 -25 -6 4 -10 1 -10 -4 0 -6 5
-11 11 -11 17 0 36 -24 31 -39 -3 -10 0 -12 11 -8 9 3 18 1 21 -6 5 -9 7 -9
12 1 3 6 23 12 45 12 l39 0 0 66 c0 55 -4 70 -21 85 -14 12 -19 24 -14 38 5
17 1 20 -23 19 -15 -1 -42 -12 -58 -26z m36 4 c0 -2 -8 -10 -17 -17 -16 -13
-17 -12 -4 4 13 16 21 21 21 13z"/>
<path d="M1565 3100 c-3 -5 3 -10 15 -10 12 0 18 5 15 10 -3 6 -10 10 -15 10
-5 0 -12 -4 -15 -10z"/>
<path d="M2527 3353 c-3 -5 9 -9 26 -10 26 -1 28 0 12 7 -26 11 -33 12 -38 3z"/>
<path d="M2690 3281 c0 -6 4 -13 10 -16 6 -3 7 1 4 9 -7 18 -14 21 -14 7z"/>
<path d="M2690 3196 c0 -8 4 -17 9 -20 5 -4 7 3 4 14 -6 23 -13 26 -13 6z"/>
<path d="M3213 3343 c9 -2 25 -2 35 0 9 3 1 5 -18 5 -19 0 -27 -2 -17 -5z"/>
<path d="M3156 3311 c-4 -7 -5 -15 -2 -18 9 -9 19 4 14 18 -4 11 -6 11 -12 0z"/>
<path d="M2610 3006 c0 -3 9 -10 20 -16 11 -6 20 -8 20 -6 0 3 -9 10 -20 16
-11 6 -20 8 -20 6z"/>
<path d="M2441 2834 c0 -11 3 -14 6 -6 3 7 2 16 -1 19 -3 4 -6 -2 -5 -13z"/>
<path d="M2538 2673 c7 -3 16 -2 19 1 4 3 -2 6 -13 5 -11 0 -14 -3 -6 -6z"/>
<path d="M2442 2575 c0 -16 2 -22 5 -12 2 9 2 23 0 30 -3 6 -5 -1 -5 -18z"/>
<path d="M2540 2410 c0 -5 4 -10 9 -10 6 0 13 5 16 10 3 6 -1 10 -9 10 -9 0
-16 -4 -16 -10z"/>
<path d="M746 908 c3 -5 10 -6 15 -3 13 9 11 12 -6 12 -8 0 -12 -4 -9 -9z"/>
<path d="M1785 600 c-3 -6 1 -7 9 -4 18 7 21 14 7 14 -6 0 -13 -4 -16 -10z"/>
<path d="M2160 616 c0 -9 7 -16 16 -16 17 0 14 22 -4 28 -7 2 -12 -3 -12 -12z"/>
<path d="M2613 614 c-9 -24 13 -41 36 -27 14 9 21 9 30 0 6 -6 11 -8 11 -4 0
11 -43 47 -57 47 -8 0 -16 -7 -20 -16z"/>
<path d="M2431 474 c0 -11 3 -14 6 -6 3 7 2 16 -1 19 -3 4 -6 -2 -5 -13z"/>
<path d="M2435 440 c3 -5 8 -10 11 -10 2 0 4 5 4 10 0 6 -5 10 -11 10 -5 0 -7
-4 -4 -10z"/>
<path d="M2470 413 c0 -5 5 -15 10 -23 8 -12 10 -11 10 8 0 12 -4 22 -10 22
-5 0 -10 -3 -10 -7z"/>
<path d="M2500 360 c8 -5 20 -10 25 -10 6 0 3 5 -5 10 -8 5 -19 10 -25 10 -5
0 -3 -5 5 -10z"/>
<path d="M3135 590 c-3 -5 1 -10 10 -10 9 0 13 5 10 10 -3 6 -8 10 -10 10 -2
0 -7 -4 -10 -10z"/>
<path d="M3125 420 c3 -5 13 -10 21 -10 8 0 12 5 9 10 -3 6 -13 10 -21 10 -8
0 -12 -4 -9 -10z"/>
<path d="M3440 471 c0 -6 4 -13 10 -16 6 -3 7 1 4 9 -7 18 -14 21 -14 7z"/>
<path d="M1285 600 c-3 -5 -1 -10 4 -10 6 0 11 5 11 10 0 6 -2 10 -4 10 -3 0
-8 -4 -11 -10z"/>
<path d="M5357 5390 c17 -10 39 -32 47 -47 l15 -28 1 48 0 47 -47 0 -48 0 32
-20z"/>
</g>
</svg>
